<svg xmlns="http://www.w3.org/2000/svg" xmlns:xlink="http://www.w3.org/1999/xlink" width="36" height="36" viewBox="0 0 36 36">
  <defs>
    <clipPath id="clip-ICONS">
      <rect width="36" height="36"/>
    </clipPath>
  </defs>
  <g id="ICONS" clip-path="url(#clip-ICONS)">
    <rect width="36" height="36" fill="#fff"/>
    <path id="Union_17" data-name="Union 17" d="M-31.467-1065.653H-42.8a3.15,3.15,0,0,1-3.146-3.146v-13.043l-1.716-.116a1.609,1.609,0,0,1-1.462-1.253,1.609,1.609,0,0,1,.787-1.758l13.745-7.636a3.094,3.094,0,0,1,3.024,0l13.747,7.637a1.61,1.61,0,0,1,.788,1.758,1.611,1.611,0,0,1-1.462,1.253l-1.716.116v13.043a3.15,3.15,0,0,1-3.146,3.146Zm-11.544-18.607a1.6,1.6,0,0,1,.284.914v14.547l6.434-.023v-4.062a2.423,2.423,0,0,1,2.419-2.419h1.6a2.417,2.417,0,0,1,2.415,2.414v4.044l6.5-.024-.07-14.476a1.6,1.6,0,0,1,.276-.9l-9.977-5.544Z" transform="translate(51.321 1097)" fill="#676f81" stroke="rgba(0,0,0,0)" stroke-miterlimit="10" stroke-width="1"/>
  </g>
</svg>
